<svg xmlns="http://www.w3.org/2000/svg" xmlns:xlink="http://www.w3.org/1999/xlink" preserveAspectRatio="xMidYMid" width="30" height="24" viewBox="0 0 30 24">
  <defs>
    <style>
      .cls-1 {
        fill: #3d3d4c;
        fill-rule: evenodd;
      }
    </style>
  </defs>
  <path d="M23.000,24.000 C20.689,24.000 18.667,23.195 17.347,21.960 L17.333,22.000 L2.000,22.000 C0.895,22.000 -0.000,21.105 -0.000,20.000 L-0.000,4.000 C-0.000,2.895 0.895,2.000 2.000,2.000 L3.000,2.000 L3.000,0.500 C3.000,0.224 3.224,-0.000 3.500,-0.000 C3.776,-0.000 4.000,0.224 4.000,0.500 L4.000,2.000 L20.000,2.000 L20.000,0.500 C20.000,0.224 20.224,-0.000 20.500,-0.000 C20.776,-0.000 21.000,0.224 21.000,0.500 L21.000,2.000 L22.000,2.000 C23.105,2.000 24.000,2.895 24.000,4.000 L24.000,16.064 C26.846,16.371 29.300,17.942 30.000,20.000 L30.016,20.000 C29.204,22.296 26.385,24.000 23.000,24.000 ZM23.000,4.000 C23.000,3.448 22.552,3.000 22.000,3.000 L21.000,3.000 L21.000,4.500 C21.000,4.776 20.776,5.000 20.500,5.000 C20.224,5.000 20.000,4.776 20.000,4.500 L20.000,3.000 L4.000,3.000 L4.000,4.500 C4.000,4.776 3.776,5.000 3.500,5.000 C3.224,5.000 3.000,4.776 3.000,4.500 L3.000,3.000 L2.000,3.000 C1.448,3.000 1.000,3.448 1.000,4.000 L1.000,8.000 L23.000,8.000 L23.000,4.000 ZM23.000,9.000 L1.000,9.000 L1.000,20.000 C1.000,20.552 1.448,21.000 2.000,21.000 L16.520,21.000 C16.308,20.681 16.124,20.351 16.000,20.000 C16.253,19.255 16.754,18.582 17.403,18.000 L16.500,18.000 C16.224,18.000 16.000,17.776 16.000,17.500 C16.000,17.224 16.224,17.000 16.500,17.000 L18.858,17.000 C20.053,16.378 21.489,16.000 23.000,16.000 L23.000,9.000 ZM23.000,17.333 C20.285,17.333 17.651,18.469 17.000,20.000 C17.676,21.531 20.179,22.667 23.000,22.667 C25.821,22.667 28.324,21.531 29.000,20.000 C28.349,18.469 25.715,17.333 23.000,17.333 ZM23.000,22.000 C21.895,22.000 21.000,21.105 21.000,20.000 C21.000,18.895 21.895,18.000 23.000,18.000 C24.105,18.000 25.000,18.895 25.000,20.000 C25.000,21.105 24.105,22.000 23.000,22.000 ZM16.000,14.500 C16.000,14.224 16.224,14.000 16.500,14.000 L19.500,14.000 C19.776,14.000 20.000,14.224 20.000,14.500 C20.000,14.776 19.776,15.000 19.500,15.000 L16.500,15.000 C16.224,15.000 16.000,14.776 16.000,14.500 ZM19.500,12.000 L16.500,12.000 C16.224,12.000 16.000,11.776 16.000,11.500 C16.000,11.224 16.224,11.000 16.500,11.000 L19.500,11.000 C19.776,11.000 20.000,11.224 20.000,11.500 C20.000,11.776 19.776,12.000 19.500,12.000 ZM13.500,18.000 L10.500,18.000 C10.224,18.000 10.000,17.776 10.000,17.500 C10.000,17.224 10.224,17.000 10.500,17.000 L13.500,17.000 C13.776,17.000 14.000,17.224 14.000,17.500 C14.000,17.776 13.776,18.000 13.500,18.000 ZM13.500,15.000 L10.500,15.000 C10.224,15.000 10.000,14.776 10.000,14.500 C10.000,14.224 10.224,14.000 10.500,14.000 L13.500,14.000 C13.776,14.000 14.000,14.224 14.000,14.500 C14.000,14.776 13.776,15.000 13.500,15.000 ZM13.500,12.000 L10.500,12.000 C10.224,12.000 10.000,11.776 10.000,11.500 C10.000,11.224 10.224,11.000 10.500,11.000 L13.500,11.000 C13.776,11.000 14.000,11.224 14.000,11.500 C14.000,11.776 13.776,12.000 13.500,12.000 ZM7.500,18.000 L4.500,18.000 C4.224,18.000 4.000,17.776 4.000,17.500 C4.000,17.224 4.224,17.000 4.500,17.000 L7.500,17.000 C7.776,17.000 8.000,17.224 8.000,17.500 C8.000,17.776 7.776,18.000 7.500,18.000 ZM7.500,15.000 L4.500,15.000 C4.224,15.000 4.000,14.776 4.000,14.500 C4.000,14.224 4.224,14.000 4.500,14.000 L7.500,14.000 C7.776,14.000 8.000,14.224 8.000,14.500 C8.000,14.776 7.776,15.000 7.500,15.000 ZM7.500,12.000 L4.500,12.000 C4.224,12.000 4.000,11.776 4.000,11.500 C4.000,11.224 4.224,11.000 4.500,11.000 L7.500,11.000 C7.776,11.000 8.000,11.224 8.000,11.500 C8.000,11.776 7.776,12.000 7.500,12.000 Z" class="cls-1"/>
</svg>
