<svg xmlns="http://www.w3.org/2000/svg" xmlns:xlink="http://www.w3.org/1999/xlink" preserveAspectRatio="xMidYMid" width="31.125" height="23.719" viewBox="0 0 31.125 23.719">
  <defs>
    <style>
      .cls-1 {
        fill: #fff;
        fill-rule: evenodd;
      }
    </style>
  </defs>
  <path d="M30.412,15.426 L16.270,1.284 C15.879,0.893 15.246,0.893 14.855,1.284 L0.713,15.426 L0.006,14.719 L14.148,0.577 C14.929,-0.204 16.196,-0.204 16.977,0.577 L31.119,14.719 L30.412,15.426 ZM4.562,21.719 C4.562,22.271 5.010,22.719 5.562,22.719 L25.562,22.719 C26.115,22.719 26.562,22.271 26.562,21.719 L26.562,15.719 L27.562,15.719 L27.562,21.719 C27.562,22.823 26.667,23.719 25.562,23.719 L5.562,23.719 C4.458,23.719 3.562,22.823 3.562,21.719 L3.562,15.719 L4.562,15.719 L4.562,21.719 Z" class="cls-1"/>
</svg>
